<svg width="1183" height="1210" xmlns="http://www.w3.org/2000/svg" xmlns:xlink="http://www.w3.org/1999/xlink" xml:space="preserve" overflow="hidden"><defs><clipPath id="clip0"><rect x="2048" y="531" width="1183" height="1210"/></clipPath></defs><g clip-path="url(#clip0)" transform="translate(-2048 -531)"><path d="M2065.5 1110.5C2065.5 793.489 2322.49 536.5 2639.5 536.5 2956.51 536.5 3213.5 793.489 3213.5 1110.5 3213.5 1427.51 2956.51 1684.5 2639.5 1684.5 2322.49 1684.5 2065.5 1427.51 2065.5 1110.5Z" stroke="#FFFFFF" stroke-width="4.58333" stroke-linecap="butt" stroke-linejoin="miter" stroke-miterlimit="8" stroke-opacity="1" fill="none" fill-rule="evenodd"/><path d="M2051 1150.5C2051 825.48 2314.26 562 2639 562 2963.74 562 3227 825.48 3227 1150.5 3227 1475.52 2963.74 1739 2639 1739 2314.26 1739 2051 1475.52 2051 1150.5Z" fill="#ADB9CA" fill-rule="evenodd" fill-opacity="0.301961"/><path d="M2753 1422.5C2753 1321.71 2834.93 1240 2936 1240 3037.07 1240 3119 1321.71 3119 1422.5 3119 1523.29 3037.07 1605 2936 1605 2834.93 1605 2753 1523.29 2753 1422.5Z" fill="#46A236" fill-rule="evenodd" fill-opacity="1"/><path d="M2454 747C2454 645.932 2535.93 564 2637 564 2738.07 564 2820 645.932 2820 747 2820 848.068 2738.07 930 2637 930 2535.93 930 2454 848.068 2454 747Z" fill="#C0523E" fill-rule="evenodd" fill-opacity="1"/><path d="M2158 1420.5C2158 1319.16 2240.16 1237 2341.5 1237 2442.84 1237 2525 1319.16 2525 1420.5 2525 1521.84 2442.84 1604 2341.5 1604 2240.16 1604 2158 1521.84 2158 1420.5Z" fill="#C0523E" fill-rule="evenodd" fill-opacity="1"/><path d="M2456 1144C2456 1042.93 2537.71 961 2638.5 961 2739.29 961 2821 1042.93 2821 1144 2821 1245.07 2739.29 1327 2638.5 1327 2537.71 1327 2456 1245.07 2456 1144Z" fill="#538AC8" fill-rule="evenodd" fill-opacity="1"/><path d="M2825 1423C2825 1362.8 2873.8 1314 2934 1314 2994.2 1314 3043 1362.8 3043 1423 3043 1483.2 2994.2 1532 2934 1532 2873.8 1532 2825 1483.2 2825 1423Z" stroke="#FFFFFF" stroke-width="27.5" stroke-linecap="butt" stroke-linejoin="miter" stroke-miterlimit="8" stroke-opacity="1" fill="#46A236" fill-rule="evenodd" fill-opacity="1"/><path d="M2650.75 746.938 2652.54 1144.31 2625.04 1144.44 2623.25 747.062ZM2595.75 747.185C2595.65 724.404 2614.03 705.853 2636.81 705.75 2659.6 705.648 2678.15 724.033 2678.25 746.814 2678.35 769.596 2659.97 788.147 2637.19 788.25 2614.4 788.352 2595.85 769.967 2595.75 747.185ZM2680.04 1144.19C2680.14 1166.97 2661.75 1185.52 2638.97 1185.62 2616.19 1185.73 2597.64 1167.34 2597.54 1144.56 2597.43 1121.78 2615.82 1103.23 2638.6 1103.12 2661.38 1103.02 2679.93 1121.41 2680.04 1144.19Z" fill="#FFFFFF" fill-rule="nonzero" fill-opacity="1"/><path d="M9.37279-10.0605 308.232 268.37 289.487 288.491-9.37279 10.0605ZM-28.1184 30.1815C-44.7871 14.6521-45.7108-11.4496-30.1815-28.1184-14.6521-44.7871 11.4496-45.7108 28.1184-30.1815 44.7871-14.6521 45.7108 11.4496 30.1815 28.1184 14.6521 44.7871-11.4496 45.7108-28.1184 30.1815ZM326.978 248.249C343.646 263.778 344.57 289.88 329.041 306.549 313.511 323.217 287.41 324.141 270.741 308.612 254.072 293.082 253.149 266.981 268.678 250.312 284.207 233.643 310.309 232.719 326.978 248.249Z" fill="#FFFFFF" fill-rule="nonzero" fill-opacity="1" transform="matrix(-1 0 0 1 2638.86 1144)"/><path d="M8.35192e-06-13.75 594.148-13.7496 594.148 13.7504-8.35192e-06 13.75ZM-2.50558e-05 41.25C-22.7818 41.25-41.25 22.7817-41.25-2.50558e-05-41.25-22.7818-22.7817-41.25 2.50558e-05-41.25 22.7818-41.25 41.25-22.7817 41.25 2.50558e-05 41.25 22.7818 22.7817 41.25-2.50558e-05 41.25ZM594.148-41.2496C616.929-41.2496 635.398-22.7814 635.398 0.000385948 635.398 22.7821 616.929 41.2504 594.148 41.2504 571.366 41.2503 552.898 22.7821 552.898 0.000335837 552.898-22.7814 571.366-41.2497 594.148-41.2496Z" fill="#FFFFFF" fill-rule="nonzero" fill-opacity="1" transform="matrix(-1 0 0 1 2934.15 1419)"/><path d="M2231 1423C2231 1362.8 2279.8 1314 2340 1314 2400.2 1314 2449 1362.8 2449 1423 2449 1483.2 2400.2 1532 2340 1532 2279.8 1532 2231 1483.2 2231 1423Z" stroke="#FFFFFF" stroke-width="27.5" stroke-linecap="butt" stroke-linejoin="miter" stroke-miterlimit="8" stroke-opacity="1" fill="#C0523E" fill-rule="evenodd" fill-opacity="1"/><path d="M2531 1144C2531 1083.8 2579.8 1035 2640 1035 2700.2 1035 2749 1083.8 2749 1144 2749 1204.2 2700.2 1253 2640 1253 2579.8 1253 2531 1204.2 2531 1144Z" stroke="#FFFFFF" stroke-width="27.5" stroke-linecap="butt" stroke-linejoin="miter" stroke-miterlimit="8" stroke-opacity="1" fill="#538AC8" fill-rule="evenodd" fill-opacity="1"/><path d="M2528 747C2528 686.801 2576.8 638 2637 638 2697.2 638 2746 686.801 2746 747 2746 807.199 2697.2 856 2637 856 2576.8 856 2528 807.199 2528 747Z" stroke="#FFFFFF" stroke-width="27.5" stroke-linecap="butt" stroke-linejoin="miter" stroke-miterlimit="8" stroke-opacity="1" fill="#C0523E" fill-rule="evenodd" fill-opacity="1"/></g></svg>